<svg width="89" height="22" viewBox="0 0 89 22" fill="none" xmlns="http://www.w3.org/2000/svg">
<path d="M7.49309 21.0541C7.11878 21.0541 6.88625 20.9099 6.88625 20.5819V1H8.83154C9.1378 1 9.37032 1.08449 9.39301 1.41251V21.0541H7.49309Z" fill="#FF4700"/>
<path d="M14.95 15.3335C15.2908 17.5654 16.5542 18.9454 18.981 18.9454C20.4853 18.9454 21.4314 18.1958 22.066 16.8328H24.7867C23.7172 19.8598 21.5313 21.0354 18.934 21.0354C14.856 21.0354 12.2352 18.1503 12.2352 14.51C12.2352 10.3812 14.7384 7.44508 18.84 7.44508C22.9415 7.44508 25.2039 10.5686 25.2039 14.51V15.3335H14.95ZM18.8106 9.53502C16.7246 9.53502 15.2673 11.1309 14.9735 13.2662H22.4303C22.1894 11.1082 20.926 9.53502 18.8106 9.53502Z" fill="#FF4700"/>
<path d="M36.8015 20.6148C36.7016 20.3308 36.6075 20.0071 36.584 19.5584C34.9328 20.5921 33.2111 21.0123 31.5599 21.0123C29.0861 21.0123 26.8708 19.8878 26.8708 17.3038C26.8708 14.5835 29.1037 13.3397 31.9713 13.0331C34.1337 12.8002 36.3196 12.3516 36.3196 11.2952C36.3196 10.2389 34.5685 9.53468 32.9937 9.53468C31.4189 9.53468 29.6913 10.307 29.5679 11.6928H26.9707C27.0941 8.85317 30.5904 7.42202 33.1112 7.42202C35.9494 7.42202 39.0873 8.66576 39.0873 11.8802V18.2409C39.0873 18.6895 39.1578 19.7175 39.4516 20.6091H36.8073L36.8015 20.6148ZM36.4136 14.1405C34.6919 14.8447 33.1347 14.8902 31.5599 15.2423C30.3201 15.4978 29.5209 16.1339 29.5209 17.3095C29.5209 18.4851 30.5434 18.8599 31.7068 18.8599C33.6518 18.8599 36.4195 17.7127 36.4195 16.2077V14.1405H36.4136Z" fill="#FF4700"/>
<path d="M49.4537 9.90967C46.3688 9.55756 44.5001 11.1534 44.5001 13.2206V20.5411H42.5081C42.1203 20.5411 41.8794 20.3764 41.8794 20.0016V7.8254H44.5001V9.02371C46.0515 7.87652 47.5322 7.52441 49.4537 7.63799V9.91535V9.90967Z" fill="#FF4700"/>
<path d="M61.2297 20.5412C60.8419 20.5412 60.5951 20.3766 60.5951 20.0017V12.704C60.5951 10.8526 59.4551 9.5577 57.657 9.5577C56.0528 9.5577 54.0902 10.898 54.0902 12.7494V20.5412H52.1217C51.7339 20.5412 51.4929 20.3766 51.4929 20.0017V7.82555H54.0902V8.7399C55.2537 7.91642 56.4935 7.51887 57.7099 7.51887C60.7479 7.51887 63.1982 9.46683 63.1982 12.5166V20.5412H61.2297Z" fill="#FF4700"/>
<path d="M68.0982 15.3335C68.439 17.5654 69.7024 18.9454 72.1292 18.9454C73.6335 18.9454 74.5796 18.1958 75.2142 16.8328H77.9349C76.8654 19.8598 74.6795 21.0354 72.0822 21.0354C68.0042 21.0354 65.3834 18.1503 65.3834 14.51C65.3834 10.3812 67.8866 7.44508 71.9882 7.44508C76.0897 7.44508 78.3521 10.5686 78.3521 14.51V15.3335H68.0982ZM71.9588 9.53502C69.8728 9.53502 68.4155 11.1309 68.1217 13.2662H75.5785C75.3376 11.1082 74.0742 9.53502 71.9588 9.53502Z" fill="#FF4700"/>
<path d="M88.1078 9.90967C85.0228 9.55756 83.1542 11.1534 83.1542 13.2206V20.5411H81.1622C80.7744 20.5411 80.5335 20.3764 80.5335 20.0016V7.8254H83.1542V9.02371C84.7055 7.87652 86.1922 7.52441 88.1078 7.63799V9.91535V9.90967Z" fill="#FF4700"/>
<path d="M4.09158 7.85839C5.30174 8.88949 5.38683 10.7681 5.38683 10.7681C5.38683 10.7681 3.51013 10.9799 2.29525 9.94883C1.08036 8.91773 1 7.04387 1 7.04387C1 7.04387 2.87669 6.832 4.09158 7.8631V7.85839Z" fill="#FF4700"/>
<path d="M12.0257 3.28999C10.8201 4.50114 11.0428 6.39892 11.0428 6.39892C11.0428 6.39892 13.215 6.33216 14.4151 5.12101C15.6153 3.90987 15.3981 2.01209 15.3981 2.01209C15.3981 2.01209 13.2259 2.07884 12.0257 3.28999Z" fill="#FF4700"/>
<path d="M6.88625 1V0.875L6.76125 1H6.88625ZM9.39301 1.41251H9.51831L9.51771 1.40389L9.39301 1.41251ZM9.39301 21.0541V21.1791L9.51801 21.0541H9.39301ZM14.95 15.3335V15.2085L14.8264 15.3523L14.95 15.3335ZM22.066 16.8328V16.7078L21.9527 16.78L22.066 16.8328ZM24.7867 16.8328L24.9045 16.8744L24.7867 16.7078V16.8328ZM25.2039 15.3335V15.4585L25.3289 15.3335H25.2039ZM14.9735 13.2662L14.8497 13.2492L14.9735 13.3912V13.2662ZM22.4303 13.2662V13.3912L22.5545 13.2524L22.4303 13.2662ZM36.8015 20.6148L36.6835 20.6563L36.8883 20.7046L36.8015 20.6148ZM36.584 19.5584L36.7089 19.5519L36.5177 19.4525L36.584 19.5584ZM31.9713 13.0331L31.9846 13.1573L31.9846 13.1573L31.9713 13.0331ZM29.5679 11.6928V11.8178L29.6924 11.7039L29.5679 11.6928ZM26.9707 11.6928L26.8458 11.6873L26.9707 11.8178V11.6928ZM39.4516 20.6091V20.7341L39.5703 20.57L39.4516 20.6091ZM36.8073 20.6091V20.4841L36.7205 20.5192L36.8073 20.6091ZM36.4136 14.1405V14.0155L36.3663 14.0248L36.4136 14.1405ZM31.5599 15.2423L31.5852 15.3647L31.5872 15.3642L31.5599 15.2423ZM36.4195 14.1405H36.5445L36.4195 14.0155V14.1405ZM49.4537 9.90967H49.5787L49.4679 9.78547L49.4537 9.90967ZM44.5001 20.5411V20.6661L44.6251 20.5411H44.5001ZM41.8794 7.8254V7.7004L41.7544 7.8254H41.8794ZM44.5001 7.8254H44.6251L44.5001 7.7004V7.8254ZM44.5001 9.02371H44.3751L44.5745 9.12422L44.5001 9.02371ZM49.4537 7.63799H49.5787L49.4611 7.51321L49.4537 7.63799ZM54.0902 20.5412V20.6662L54.2152 20.5412H54.0902ZM51.4929 7.82555V7.70055L51.3679 7.82555H51.4929ZM54.0902 7.82555H54.2152L54.0902 7.70055V7.82555ZM54.0902 8.7399H53.9652L54.1624 8.84193L54.0902 8.7399ZM63.1982 20.5412V20.6662L63.3232 20.5412H63.1982ZM68.0982 15.3335V15.2085L67.9746 15.3523L68.0982 15.3335ZM75.2142 16.8328V16.7078L75.1009 16.78L75.2142 16.8328ZM77.9349 16.8328L78.0527 16.8744L77.9349 16.7078V16.8328ZM78.3521 15.3335V15.4585L78.4771 15.3335H78.3521ZM68.1217 13.2662L67.9979 13.2492L68.1217 13.3912V13.2662ZM75.5785 13.2662V13.3912L75.7028 13.2524L75.5785 13.2662ZM88.1078 9.90967H88.2328L88.122 9.78547L88.1078 9.90967ZM83.1542 20.5411V20.6661L83.2792 20.5411H83.1542ZM80.5335 7.8254V7.7004L80.4085 7.8254H80.5335ZM83.1542 7.8254H83.2792L83.1542 7.7004V7.8254ZM83.1542 9.02371H83.0292L83.2286 9.12422L83.1542 9.02371ZM88.1078 7.63799H88.2328L88.1152 7.51321L88.1078 7.63799ZM4.09158 7.85839L4.17265 7.76324C4.13554 7.73163 4.08344 7.72447 4.03918 7.7449C3.99492 7.76534 3.96658 7.80964 3.96658 7.85839H4.09158ZM5.38683 10.7681L5.40085 10.8923C5.46621 10.8849 5.51468 10.8281 5.5117 10.7624L5.38683 10.7681ZM1 7.04387L0.985977 6.91966C0.920728 6.92702 0.872301 6.98362 0.875115 7.04922L1 7.04387ZM4.09158 7.8631L4.01069 7.9584C4.04783 7.98992 4.09989 7.99699 4.14409 7.97653C4.18829 7.95607 4.21658 7.9118 4.21658 7.8631H4.09158ZM12.0257 3.28999L12.1143 3.37817L12.1145 3.37797L12.0257 3.28999ZM11.0428 6.39892L10.9186 6.41348C10.9262 6.47791 10.9818 6.52585 11.0466 6.52386L11.0428 6.39892ZM15.3981 2.01209L15.5223 1.99787C15.5149 1.93329 15.4592 1.88515 15.3942 1.88715L15.3981 2.01209ZM7.49309 20.9291C7.31869 20.9291 7.19778 20.8949 7.12328 20.8402C7.05548 20.7905 7.01125 20.7128 7.01125 20.5819H6.76125C6.76125 20.779 6.83329 20.9375 6.97533 21.0418C7.11068 21.1411 7.29319 21.1791 7.49309 21.1791V20.9291ZM7.01125 20.5819V1H6.76125V20.5819H7.01125ZM6.88625 1.125H8.83154V0.875H6.88625V1.125ZM8.83154 1.125C8.97749 1.125 9.08327 1.146 9.15229 1.1892C9.21201 1.22658 9.25923 1.28994 9.26831 1.42114L9.51771 1.40389C9.5041 1.20707 9.42372 1.06416 9.28494 0.977294C9.15546 0.896249 8.99185 0.875 8.83154 0.875V1.125ZM9.26801 1.41251V21.0541H9.51801V1.41251H9.26801ZM9.39301 20.9291H7.49309V21.1791H9.39301V20.9291ZM14.8264 15.3523C14.9996 16.4863 15.4093 17.4185 16.0975 18.0674C16.7873 18.7177 17.7429 19.0704 18.981 19.0704V18.8204C17.7922 18.8204 16.9028 18.4831 16.269 17.8855C15.6336 17.2863 15.2412 16.4126 15.0735 15.3146L14.8264 15.3523ZM18.981 19.0704C19.7552 19.0704 20.394 18.8771 20.922 18.5022C21.4486 18.1282 21.8559 17.5802 22.1793 16.8855L21.9527 16.78C21.6415 17.4484 21.2584 17.9567 20.7773 18.2983C20.2975 18.639 19.7111 18.8204 18.981 18.8204V19.0704ZM22.066 16.9578H24.7867V16.7078H22.066V16.9578ZM24.6688 16.7911C24.1416 18.2833 23.3428 19.3103 22.3637 19.9653C21.384 20.6208 20.2139 20.9104 18.934 20.9104V21.1604C20.2514 21.1604 21.4729 20.8621 22.5028 20.1731C23.5334 19.4836 24.3623 18.4092 24.9045 16.8744L24.6688 16.7911ZM18.934 20.9104C14.9261 20.9104 12.3602 18.0825 12.3602 14.51H12.1102C12.1102 18.2182 14.7858 21.1604 18.934 21.1604V20.9104ZM12.3602 14.51C12.3602 12.4705 12.9782 10.7363 14.0919 9.51341C15.2044 8.29186 16.8208 7.57008 18.84 7.57008V7.32008C16.7577 7.32008 15.0716 8.06637 13.9071 9.34508C12.7438 10.6225 12.1102 12.4207 12.1102 14.51H12.3602ZM18.84 7.57008C20.8562 7.57008 22.4115 8.33643 23.4646 9.5803C24.5198 10.8266 25.0789 12.5622 25.0789 14.51H25.3289C25.3289 12.5165 24.7567 10.7195 23.6554 9.41875C22.552 8.1155 20.9253 7.32008 18.84 7.32008V7.57008ZM25.0789 14.51V15.3335H25.3289V14.51H25.0789ZM25.2039 15.2085H14.95V15.4585H25.2039V15.2085ZM18.8106 9.41002C16.647 9.41002 15.1497 11.0682 14.8497 13.2492L15.0973 13.2833C15.3849 11.1935 16.8022 9.66002 18.8106 9.66002V9.41002ZM14.9735 13.3912H22.4303V13.1412H14.9735V13.3912ZM22.5545 13.2524C22.4319 12.1538 22.048 11.1939 21.4154 10.5067C20.7806 9.81716 19.9022 9.41002 18.8106 9.41002V9.66002C19.8344 9.66002 20.6454 10.0394 21.2314 10.676C21.8196 11.3149 22.1878 12.2206 22.3061 13.2801L22.5545 13.2524ZM36.9194 20.5733C36.8218 20.296 36.7315 19.9846 36.7089 19.5519L36.4592 19.565C36.4836 20.0296 36.5813 20.3657 36.6835 20.6563L36.9194 20.5733ZM36.5177 19.4525C34.8877 20.4729 33.1892 20.8873 31.5599 20.8873V21.1373C33.2331 21.1373 34.978 20.7112 36.6504 19.6644L36.5177 19.4525ZM31.5599 20.8873C30.3395 20.8873 29.195 20.6096 28.3593 20.0247C27.5291 19.4435 26.9958 18.5543 26.9958 17.3038H26.7458C26.7458 18.6373 27.3201 19.6024 28.216 20.2295C29.1065 20.8528 30.3065 21.1373 31.5599 21.1373V20.8873ZM26.9958 17.3038C26.9958 15.9837 27.5349 15.0294 28.4208 14.3632C29.3124 13.6928 30.5624 13.3094 31.9846 13.1573L31.958 12.9088C30.5125 13.0634 29.2123 13.4552 28.2706 14.1634C27.3231 14.8759 26.7458 15.9036 26.7458 17.3038H26.9958ZM31.9846 13.1573C33.0674 13.0407 34.1658 12.8693 34.996 12.5915C35.4106 12.4527 35.7676 12.2845 36.0232 12.0766C36.2806 11.8672 36.4446 11.6086 36.4446 11.2952H36.1946C36.1946 11.51 36.0854 11.7037 35.8654 11.8827C35.6435 12.0633 35.3188 12.2198 34.9167 12.3544C34.1134 12.6232 33.0375 12.7925 31.9579 12.9088L31.9846 13.1573ZM36.4446 11.2952C36.4446 10.6916 35.9472 10.2197 35.3018 9.90638C34.6479 9.58893 33.7974 9.40968 32.9937 9.40968V9.65968C33.7649 9.65968 34.5773 9.83253 35.1926 10.1313C35.8164 10.4341 36.1946 10.8426 36.1946 11.2952H36.4446ZM32.9937 9.40968C32.1881 9.40968 31.3405 9.60683 30.6747 9.98542C30.0091 10.3639 29.51 10.9341 29.4434 11.6817L29.6924 11.7039C29.7492 11.0657 30.1756 10.5568 30.7983 10.2027C31.4209 9.84871 32.2246 9.65968 32.9937 9.65968V9.40968ZM29.5679 11.5678H26.9707V11.8178H29.5679V11.5678ZM27.0955 11.6982C27.1548 10.3354 28.0224 9.30014 29.2056 8.60013C30.3892 7.89981 31.8711 7.54702 33.1112 7.54702V7.29702C31.8305 7.29702 30.3039 7.6598 29.0782 8.38497C27.8521 9.11043 26.91 10.2106 26.8458 11.6873L27.0955 11.6982ZM33.1112 7.54702C34.515 7.54702 35.9838 7.85505 37.0973 8.55166C38.2052 9.24478 38.9623 10.3218 38.9623 11.8802H39.2123C39.2123 10.2241 38.4005 9.07208 37.2299 8.33972C36.0649 7.61086 34.5457 7.29702 33.1112 7.29702V7.54702ZM38.9623 11.8802V18.2409H39.2123V11.8802H38.9623ZM38.9623 18.2409C38.9623 18.6969 39.0334 19.7394 39.3329 20.6482L39.5703 20.57C39.2822 19.6956 39.2123 18.6821 39.2123 18.2409H38.9623ZM39.4516 20.4841H36.8073V20.7341H39.4516V20.4841ZM36.7205 20.5192L36.7146 20.5249L36.8883 20.7046L36.8942 20.699L36.7205 20.5192ZM36.3663 14.0248C35.517 14.3722 34.707 14.5577 33.9097 14.7004C33.1173 14.8422 32.3228 14.9436 31.5327 15.1203L31.5872 15.3642C32.3719 15.1888 33.1434 15.0915 33.9537 14.9465C34.7591 14.8023 35.5885 14.613 36.461 14.2562L36.3663 14.0248ZM31.5347 15.1198C30.9018 15.2503 30.3671 15.4805 29.9893 15.8403C29.6079 16.2036 29.3959 16.6901 29.3959 17.3095H29.6459C29.6459 16.7533 29.8335 16.334 30.1617 16.0214C30.4934 15.7054 30.9782 15.4898 31.5852 15.3647L31.5347 15.1198ZM29.3959 17.3095C29.3959 17.9416 29.6749 18.3697 30.1133 18.6327C30.5424 18.8903 31.1154 18.9849 31.7068 18.9849V18.7349C31.1348 18.7349 30.6148 18.6421 30.2419 18.4184C29.8781 18.2001 29.6459 17.853 29.6459 17.3095H29.3959ZM31.7068 18.9849C32.7001 18.9849 33.8975 18.693 34.8492 18.2096C35.3253 17.9678 35.746 17.675 36.0492 17.3411C36.3526 17.0069 36.5445 16.6244 36.5445 16.2077H36.2945C36.2945 16.5435 36.1404 16.8688 35.8641 17.173C35.5876 17.4775 35.1948 17.7537 34.7359 17.9867C33.8175 18.4532 32.6586 18.7349 31.7068 18.7349V18.9849ZM36.5445 16.2077V14.1405H36.2945V16.2077H36.5445ZM36.4195 14.0155H36.4136V14.2655H36.4195V14.0155ZM49.4679 9.78547C47.9022 9.60677 46.6307 9.92089 45.7471 10.5564C44.8618 11.1932 44.3751 12.1466 44.3751 13.2206H44.6251C44.6251 12.2274 45.0728 11.3493 45.8931 10.7594C46.715 10.1682 47.9203 9.86046 49.4396 10.0339L49.4679 9.78547ZM44.3751 13.2206V20.5411H44.6251V13.2206H44.3751ZM44.5001 20.4161H42.5081V20.6661H44.5001V20.4161ZM42.5081 20.4161C42.3291 20.4161 42.2047 20.3777 42.127 20.3148C42.054 20.2557 42.0044 20.1604 42.0044 20.0016H41.7544C41.7544 20.2176 41.8252 20.3921 41.9697 20.509C42.1094 20.6222 42.2994 20.6661 42.5081 20.6661V20.4161ZM42.0044 20.0016V7.8254H41.7544V20.0016H42.0044ZM41.8794 7.9504H44.5001V7.7004H41.8794V7.9504ZM44.3751 7.8254V9.02371H44.6251V7.8254H44.3751ZM44.5745 9.12422C46.0988 7.99699 47.5495 7.65065 49.4464 7.76277L49.4611 7.51321C47.515 7.39817 46.0041 7.75605 44.4258 8.92321L44.5745 9.12422ZM49.3287 7.63799V9.91535H49.5787V7.63799H49.3287ZM49.5787 9.91535V9.90967H49.3287V9.91535H49.5787ZM61.2297 20.4162C61.0507 20.4162 60.9244 20.3778 60.845 20.3144C60.7705 20.2549 60.7201 20.1596 60.7201 20.0017H60.4701C60.4701 20.2187 60.5431 20.3932 60.6889 20.5097C60.8299 20.6223 61.0209 20.6662 61.2297 20.6662V20.4162ZM60.7201 20.0017V12.704H60.4701V20.0017H60.7201ZM60.7201 12.704C60.7201 11.7528 60.427 10.9342 59.8924 10.352C59.3568 9.7687 58.5877 9.4327 57.657 9.4327V9.6827C58.5245 9.6827 59.2244 9.99413 59.7083 10.5211C60.1932 11.0492 60.4701 11.8037 60.4701 12.704H60.7201ZM57.657 9.4327C56.823 9.4327 55.9039 9.7798 55.1928 10.3626C54.4808 10.9461 53.9652 11.7768 53.9652 12.7494H54.2152C54.2152 11.8706 54.6809 11.1054 55.3513 10.5559C56.0226 10.0057 56.8869 9.6827 57.657 9.6827V9.4327ZM53.9652 12.7494V20.5412H54.2152V12.7494H53.9652ZM54.0902 20.4162H52.1217V20.6662H54.0902V20.4162ZM52.1217 20.4162C51.9426 20.4162 51.8182 20.3778 51.7405 20.3149C51.6676 20.2558 51.6179 20.1606 51.6179 20.0017H51.3679C51.3679 20.2177 51.4388 20.3922 51.5832 20.5092C51.7229 20.6223 51.9129 20.6662 52.1217 20.6662V20.4162ZM51.6179 20.0017V7.82555H51.3679V20.0017H51.6179ZM51.4929 7.95055H54.0902V7.70055H51.4929V7.95055ZM53.9652 7.82555V8.7399H54.2152V7.82555H53.9652ZM54.1624 8.84193C55.3068 8.03199 56.5217 7.64387 57.7099 7.64387V7.39387C56.4654 7.39387 55.2006 7.80084 54.018 8.63787L54.1624 8.84193ZM57.7099 7.64387C60.6951 7.64387 63.0732 9.55104 63.0732 12.5166H63.3232C63.3232 9.38263 60.8007 7.39387 57.7099 7.39387V7.64387ZM63.0732 12.5166V20.5412H63.3232V12.5166H63.0732ZM63.1982 20.4162H61.2297V20.6662H63.1982V20.4162ZM67.9746 15.3523C68.1478 16.4863 68.5575 17.4185 69.2457 18.0674C69.9355 18.7177 70.8912 19.0704 72.1292 19.0704V18.8204C70.9405 18.8204 70.051 18.4831 69.4172 17.8855C68.7818 17.2863 68.3894 16.4126 68.2218 15.3146L67.9746 15.3523ZM72.1292 19.0704C72.9034 19.0704 73.5422 18.8771 74.0702 18.5022C74.5968 18.1282 75.0041 17.5802 75.3275 16.8855L75.1009 16.78C74.7897 17.4484 74.4066 17.9567 73.9255 18.2983C73.4457 18.639 72.8594 18.8204 72.1292 18.8204V19.0704ZM75.2142 16.9578H77.9349V16.7078H75.2142V16.9578ZM77.817 16.7911C77.2898 18.2833 76.491 19.3103 75.5119 19.9653C74.5322 20.6208 73.3621 20.9104 72.0822 20.9104V21.1604C73.3996 21.1604 74.6211 20.8621 75.651 20.1731C76.6816 19.4836 77.5105 18.4092 78.0527 16.8744L77.817 16.7911ZM72.0822 20.9104C68.0743 20.9104 65.5084 18.0825 65.5084 14.51H65.2584C65.2584 18.2182 67.934 21.1604 72.0822 21.1604V20.9104ZM65.5084 14.51C65.5084 12.4705 66.1265 10.7363 67.2401 9.51341C68.3526 8.29186 69.969 7.57008 71.9882 7.57008V7.32008C69.9059 7.32008 68.2198 8.06637 67.0553 9.34508C65.892 10.6225 65.2584 12.4207 65.2584 14.51H65.5084ZM71.9882 7.57008C74.0044 7.57008 75.5597 8.33643 76.6128 9.5803C77.668 10.8266 78.2271 12.5622 78.2271 14.51H78.4771C78.4771 12.5165 77.9049 10.7195 76.8036 9.41875C75.7002 8.1155 74.0735 7.32008 71.9882 7.32008V7.57008ZM78.2271 14.51V15.3335H78.4771V14.51H78.2271ZM71.9588 9.41002C69.7952 9.41002 68.2979 11.0682 67.9979 13.2492L68.2455 13.2833C68.5331 11.1935 69.9504 9.66002 71.9588 9.66002V9.41002ZM68.1217 13.3912H75.5785V13.1412H68.1217V13.3912ZM75.7028 13.2524C75.5801 12.1538 75.1962 11.1939 74.5636 10.5067C73.9288 9.81716 73.0504 9.41002 71.9588 9.41002V9.66002C72.9826 9.66002 73.7936 10.0394 74.3796 10.676C74.9678 11.3149 75.336 12.2206 75.4543 13.2801L75.7028 13.2524ZM88.122 9.78547C86.5563 9.60677 85.2848 9.92089 84.4012 10.5564C83.5159 11.1932 83.0292 12.1466 83.0292 13.2206H83.2792C83.2792 12.2274 83.7269 11.3493 84.5472 10.7594C85.3691 10.1682 86.5744 9.86046 88.0937 10.0339L88.122 9.78547ZM83.0292 13.2206V20.5411H83.2792V13.2206H83.0292ZM83.1542 20.4161H81.1622V20.6661H83.1542V20.4161ZM81.1622 20.4161C80.9832 20.4161 80.8588 20.3777 80.7811 20.3148C80.7081 20.2557 80.6585 20.1604 80.6585 20.0016H80.4085C80.4085 20.2176 80.4793 20.3921 80.6238 20.509C80.7635 20.6222 80.9535 20.6661 81.1622 20.6661V20.4161ZM80.6585 20.0016V7.8254H80.4085V20.0016H80.6585ZM80.5335 7.9504H83.1542V7.7004H80.5335V7.9504ZM83.0292 7.8254V9.02371H83.2792V7.8254H83.0292ZM83.2286 9.12422C84.7528 7.997 86.2094 7.65065 88.1004 7.76277L88.1152 7.51321C86.175 7.39817 84.6582 7.75603 83.0799 8.92321L83.2286 9.12422ZM87.9828 7.63799V9.91535H88.2328V7.63799H87.9828ZM88.2328 9.91535V9.90967H87.9828V9.91535H88.2328ZM4.01051 7.95354C4.5891 8.44652 4.90361 9.14723 5.0729 9.73451C5.1572 10.0269 5.20457 10.288 5.23083 10.4757C5.24395 10.5695 5.25176 10.6448 5.25629 10.6963C5.25855 10.722 5.25998 10.7418 5.26084 10.7549C5.26127 10.7615 5.26156 10.7664 5.26174 10.7695C5.26182 10.7711 5.26188 10.7723 5.26192 10.773C5.26194 10.7733 5.26195 10.7736 5.26195 10.7737C5.26196 10.7737 5.26196 10.7738 5.26196 10.7738C5.26196 10.7738 5.26196 10.7738 5.26196 10.7738C5.26196 10.7737 5.26195 10.7737 5.38683 10.7681C5.5117 10.7624 5.5117 10.7624 5.51169 10.7623C5.51169 10.7623 5.51169 10.7622 5.51169 10.7622C5.51168 10.7621 5.51168 10.7619 5.51167 10.7618C5.51165 10.7614 5.51163 10.761 5.5116 10.7604C5.51155 10.7593 5.51147 10.7578 5.51136 10.7558C5.51114 10.7517 5.5108 10.746 5.51031 10.7385C5.50933 10.7236 5.50776 10.702 5.50533 10.6744C5.50047 10.6191 5.49219 10.5395 5.47842 10.4411C5.4509 10.2444 5.40137 9.97138 5.31312 9.66526C5.13734 9.05548 4.80421 8.30136 4.17265 7.76324L4.01051 7.95354ZM5.38683 10.7681C5.3728 10.6438 5.37283 10.6438 5.37286 10.6438C5.37286 10.6438 5.37287 10.6438 5.37287 10.6438C5.37286 10.6438 5.37283 10.6438 5.37276 10.6439C5.37263 10.6439 5.37239 10.6439 5.37204 10.6439C5.37134 10.644 5.37019 10.6441 5.3686 10.6443C5.36543 10.6446 5.36052 10.6451 5.35393 10.6457C5.34076 10.6469 5.32092 10.6486 5.29504 10.6505C5.24325 10.6541 5.16734 10.6582 5.07221 10.6601C4.88179 10.6637 4.61526 10.6581 4.31179 10.621C3.70227 10.5465 2.95713 10.3466 2.37613 9.85353L2.21436 10.0441C2.84826 10.5821 3.6489 10.7919 4.28145 10.8692C4.59901 10.908 4.87759 10.9139 5.07702 10.91C5.17681 10.9081 5.257 10.9038 5.31259 10.8998C5.3404 10.8979 5.36206 10.896 5.37698 10.8947C5.38443 10.894 5.3902 10.8934 5.39421 10.893C5.39621 10.8928 5.39777 10.8926 5.39888 10.8925C5.39944 10.8924 5.39988 10.8924 5.40021 10.8923C5.40037 10.8923 5.40051 10.8923 5.40061 10.8923C5.40067 10.8923 5.40073 10.8923 5.40075 10.8923C5.4008 10.8923 5.40085 10.8923 5.38683 10.7681ZM2.37613 9.85353C1.79527 9.36053 1.48083 8.66105 1.31216 8.07511C1.22818 7.78335 1.18125 7.5229 1.15536 7.33565C1.14243 7.2421 1.13477 7.16703 1.13037 7.11571C1.12817 7.09006 1.12678 7.07035 1.12595 7.05726C1.12553 7.05072 1.12526 7.04583 1.12509 7.04268C1.12501 7.0411 1.12495 7.03996 1.12492 7.03926C1.1249 7.03891 1.12489 7.03867 1.12489 7.03855C1.12488 7.03849 1.12488 7.03845 1.12488 7.03845C1.12488 7.03844 1.12488 7.03846 1.12488 7.03846C1.12488 7.03848 1.12489 7.03851 1 7.04387C0.875115 7.04922 0.875117 7.04927 0.875119 7.04932C0.87512 7.04935 0.875123 7.04941 0.875125 7.04946C0.87513 7.04957 0.875136 7.04971 0.875144 7.04987C0.875158 7.0502 0.875179 7.05065 0.875206 7.0512C0.875259 7.05231 0.875336 7.05388 0.875442 7.05588C0.875654 7.05988 0.875978 7.06563 0.876449 7.07307C0.87739 7.08793 0.878915 7.10949 0.881284 7.13709C0.88602 7.19227 0.894135 7.27165 0.907717 7.36989C0.93486 7.56621 0.983954 7.83868 1.07192 8.14427C1.24716 8.75304 1.58034 9.50603 2.21436 10.0441L2.37613 9.85353ZM1 7.04387C1.01402 7.16808 1.01399 7.16808 1.01397 7.16809C1.01397 7.16809 1.01396 7.16809 1.01396 7.16809C1.01397 7.16809 1.014 7.16808 1.01407 7.16808C1.01419 7.16806 1.01443 7.16804 1.01478 7.168C1.01549 7.16792 1.01664 7.1678 1.01822 7.16764C1.02139 7.16731 1.02631 7.16682 1.0329 7.16621C1.04607 7.16499 1.0659 7.16329 1.09179 7.16147C1.14357 7.15783 1.21949 7.15368 1.31462 7.15185C1.50504 7.14819 1.77156 7.1538 2.07504 7.1909C2.68455 7.26541 3.4297 7.4653 4.01069 7.9584L4.17246 7.76779C3.53857 7.2298 2.73793 7.02007 2.10537 6.94275C1.78782 6.90392 1.50924 6.89806 1.30981 6.9019C1.21002 6.90382 1.12983 6.90817 1.07423 6.91209C1.04643 6.91404 1.02476 6.91589 1.00985 6.91727C1.00239 6.91796 0.996623 6.91854 0.992619 6.91895C0.990616 6.91916 0.989055 6.91932 0.987945 6.91944C0.98739 6.9195 0.986948 6.91955 0.98662 6.91959C0.986455 6.9196 0.98632 6.91962 0.986213 6.91963C0.986159 6.91964 0.9861 6.91964 0.986073 6.91965C0.986022 6.91965 0.985977 6.91966 1 7.04387ZM4.21658 7.8631V7.85839H3.96658V7.8631H4.21658ZM11.9371 3.20181C11.3085 3.83332 11.0558 4.63981 10.9586 5.27987C10.9098 5.60079 10.8998 5.88275 10.9018 6.08476C10.9029 6.18585 10.907 6.26715 10.9109 6.32359C10.9128 6.35181 10.9147 6.37383 10.9161 6.38902C10.9168 6.39662 10.9174 6.40251 10.9179 6.40661C10.9181 6.40866 10.9183 6.41026 10.9184 6.41141C10.9185 6.41199 10.9185 6.41245 10.9186 6.41279C10.9186 6.41297 10.9186 6.41311 10.9186 6.41322C10.9186 6.41328 10.9186 6.41335 10.9186 6.41337C10.9186 6.41343 10.9186 6.41348 11.0428 6.39892C11.1669 6.38435 11.1669 6.38439 11.1669 6.38441C11.1669 6.38441 11.1669 6.38443 11.1669 6.38443C11.1669 6.38443 11.1669 6.3844 11.1669 6.38435C11.1669 6.38423 11.1669 6.384 11.1669 6.38366C11.1668 6.38297 11.1667 6.38184 11.1665 6.38026C11.1662 6.37711 11.1657 6.37219 11.165 6.36559C11.1638 6.35239 11.1621 6.33246 11.1603 6.30642C11.1567 6.25434 11.1528 6.17792 11.1518 6.08217C11.1498 5.8905 11.1594 5.62231 11.2057 5.3174C11.2986 4.70578 11.5373 3.9578 12.1143 3.37817L11.9371 3.20181ZM11.0428 6.39892C11.0466 6.52386 11.0467 6.52386 11.0467 6.52385C11.0467 6.52385 11.0468 6.52385 11.0469 6.52385C11.047 6.52385 11.0471 6.52384 11.0473 6.52384C11.0476 6.52382 11.0481 6.52381 11.0487 6.52379C11.05 6.52374 11.0517 6.52368 11.054 6.52359C11.0585 6.52341 11.065 6.52313 11.0735 6.52272C11.0905 6.5219 11.1152 6.52055 11.1469 6.51839C11.2104 6.51409 11.3018 6.50659 11.415 6.49377C11.6414 6.46814 11.9557 6.42116 12.3084 6.33562C13.0105 6.16535 13.88 5.83867 14.5039 5.209L14.3264 5.03303C13.7502 5.61451 12.9335 5.92677 12.2495 6.09267C11.9091 6.17521 11.6053 6.22062 11.3869 6.24535C11.2777 6.25771 11.1901 6.26489 11.13 6.26897C11.1 6.27101 11.0769 6.27227 11.0614 6.27302C11.0537 6.27339 11.0479 6.27363 11.0441 6.27378C11.0423 6.27386 11.0409 6.27391 11.04 6.27394C11.0396 6.27395 11.0393 6.27396 11.0391 6.27397C11.039 6.27397 11.0389 6.27397 11.0389 6.27398C11.0389 6.27398 11.0389 6.27398 11.0389 6.27398C11.0389 6.27397 11.039 6.27397 11.0428 6.39892ZM14.5039 5.209C15.1297 4.57753 15.3824 3.77118 15.4802 3.13127C15.5293 2.8104 15.5399 2.52849 15.5383 2.32652C15.5374 2.22545 15.5335 2.14416 15.5298 2.08773C15.5279 2.05952 15.5261 2.0375 15.5247 2.02231C15.524 2.01472 15.5234 2.00884 15.523 2.00474C15.5228 2.00269 15.5226 2.00108 15.5225 1.99994C15.5224 1.99936 15.5224 1.9989 15.5223 1.99856C15.5223 1.99839 15.5223 1.99824 15.5223 1.99813C15.5223 1.99807 15.5223 1.99801 15.5223 1.99798C15.5223 1.99792 15.5223 1.99787 15.3981 2.01209C15.2739 2.0263 15.2739 2.02627 15.2739 2.02624C15.2739 2.02624 15.2739 2.02622 15.2739 2.02622C15.2739 2.02622 15.2739 2.02625 15.2739 2.02631C15.2739 2.02643 15.2739 2.02666 15.274 2.027C15.274 2.02769 15.2742 2.02882 15.2743 2.0304C15.2746 2.03356 15.2751 2.03848 15.2757 2.04508C15.2769 2.05829 15.2786 2.07822 15.2803 2.10426C15.2838 2.15636 15.2875 2.23279 15.2883 2.32856C15.2898 2.52027 15.2797 2.78851 15.2331 3.09347C15.1395 3.70524 14.9008 4.45335 14.3264 5.03303L14.5039 5.209ZM15.3981 2.01209C15.3942 1.88715 15.3942 1.88715 15.3941 1.88715C15.3941 1.88715 15.3941 1.88715 15.394 1.88715C15.3939 1.88716 15.3937 1.88716 15.3936 1.88717C15.3932 1.88718 15.3927 1.8872 15.3921 1.88722C15.3909 1.88726 15.3891 1.88732 15.3869 1.88741C15.3824 1.88759 15.3758 1.88787 15.3673 1.88828C15.3504 1.8891 15.3256 1.89046 15.2939 1.89261C15.2305 1.89691 15.1391 1.90441 15.0258 1.91724C14.7995 1.94287 14.4852 1.98985 14.1325 2.07538C13.4304 2.24565 12.5609 2.57234 11.9369 3.20201L12.1145 3.37797C12.6907 2.7965 13.5074 2.48423 14.1914 2.31834C14.5318 2.23579 14.8355 2.19039 15.054 2.16565C15.1631 2.15329 15.2508 2.14611 15.3109 2.14204C15.3409 2.14 15.364 2.13873 15.3794 2.13799C15.3871 2.13761 15.3929 2.13737 15.3967 2.13722C15.3986 2.13715 15.4 2.1371 15.4009 2.13706C15.4013 2.13705 15.4016 2.13704 15.4018 2.13703C15.4019 2.13703 15.4019 2.13703 15.4019 2.13703C15.402 2.13703 15.4019 2.13703 15.402 2.13703C15.4019 2.13703 15.4019 2.13703 15.3981 2.01209ZM78.3521 15.2085H68.0982V15.4585H78.3521V15.2085Z" fill="#FF4700"/>
</svg>
