<svg width="28" height="28" viewBox="0 0 28 28" fill="none" xmlns="http://www.w3.org/2000/svg">
<g clip-path="url(#clip0_138_1261)">
<rect width="28" height="28" fill="white"/>
<rect width="28" height="28" rx="3" fill="#FF4700"/>
<g clip-path="url(#clip1_138_1261)">
<path d="M16.746 15.5443C16.6138 15.4772 16.4606 15.4496 16.3131 15.4181C15.9512 15.3411 15.6083 15.4536 15.457 15.8046C15.39 15.9585 15.3287 16.1143 15.2828 16.2741C15.1468 16.7454 15.0395 17.2247 14.8806 17.6882C14.7618 18.0373 14.5818 18.3628 14.4209 18.7158C14.5128 18.7158 14.5971 18.7257 14.6795 18.7158C15.3057 18.631 15.8995 18.4358 16.4453 18.1083C16.5889 18.0216 16.7613 17.9229 16.8283 17.7829C17.0543 17.3095 17.1922 16.8007 17.1501 16.2642C17.1271 15.9664 17.0294 15.6883 16.746 15.5463V15.5443Z" fill="white"/>
<path d="M23.6787 14.4456C23.6327 14.4357 23.5868 14.4199 23.5408 14.4101C20.9763 13.8302 19.6088 10.8362 20.8154 8.43386C20.961 8.14392 21.1525 7.87765 21.3344 7.57983C19.4652 5.90728 17.3948 5.47336 15.0621 6.53843V5H14.2155V6.60944C14.116 6.5621 14.0547 6.53251 13.9915 6.50096C12.8787 5.96842 11.7162 5.81852 10.5172 6.07887C9.1153 6.38459 7.98914 7.16958 7.07558 8.28396C5.93411 9.67644 5.31932 11.3056 5.09141 13.0965C4.87115 14.8124 5.04735 16.4909 5.63724 18.1141C6.14095 19.5027 6.90513 20.7117 8.02936 21.6565C9.94651 23.2699 12.3693 23.5006 14.4224 22.2679C14.5737 22.1772 14.6752 22.187 14.8208 22.2738C16.1806 23.0904 17.617 23.2797 19.1204 22.7748C20.4898 22.3152 21.5279 21.402 22.3438 20.2048C23.4316 18.6053 23.9219 16.8025 24.0004 14.8657C24.0094 14.6356 23.9034 14.4962 23.6825 14.4475L23.6787 14.4456ZM16.7992 11.1537C17.3891 11.0965 17.8947 11.7218 17.889 12.2582C17.8832 12.8499 17.3738 13.3884 16.7877 13.3785C16.2438 13.3706 15.7037 12.8598 15.7171 12.2267C15.7286 11.6922 16.2419 11.1024 16.7992 11.1537ZM11.674 11.1537C12.218 11.1005 12.7753 11.6843 12.7561 12.2819C12.737 12.8519 12.2486 13.3785 11.6683 13.3785C11.1148 13.3785 10.5709 12.8618 10.5862 12.2208C10.5977 11.7198 11.0746 11.1005 11.674 11.1537ZM18.4865 17.0195C18.1475 17.4988 17.7338 17.9031 17.2723 18.2561C16.6479 18.7315 15.9622 19.0707 15.2 19.2285C14.6197 19.3488 14.0355 19.3547 13.4475 19.2561C12.6795 19.1279 11.9958 18.8123 11.358 18.3705C10.816 17.9938 10.3564 17.5284 9.95991 16.9938C9.87564 16.8814 9.90629 16.6704 10.0155 16.5836C10.1323 16.4889 10.3181 16.5067 10.4081 16.629C10.952 17.3666 11.6223 17.9465 12.4478 18.3173C12.7983 18.4751 13.1775 18.5638 13.5433 18.6802C13.6678 18.7196 13.7444 18.6348 13.8114 18.5461C14.114 18.1378 14.3056 17.6743 14.4454 17.1852C14.5871 16.6901 14.7078 16.1872 14.8782 15.7039C15.064 15.1773 15.4221 14.8499 16.0025 14.8223C16.5291 14.7966 16.9984 14.9032 17.3718 15.3134C17.571 15.5343 17.6764 15.8045 17.6993 16.0945C17.7242 16.4159 17.7051 16.7394 17.7051 17.0806C17.8162 16.9485 17.9311 16.8203 18.0364 16.6842C18.1667 16.5146 18.3161 16.4791 18.4693 16.5954C18.5842 16.6842 18.5995 16.8617 18.4884 17.0195H18.4865Z" fill="white"/>
</g>
</g>
<defs>
<clipPath id="clip0_138_1261">
<rect width="28" height="28" fill="white"/>
</clipPath>
<clipPath id="clip1_138_1261">
<rect width="20" height="19" fill="white" transform="translate(4 5)"/>
</clipPath>
</defs>
</svg>
